<svg id="Layer_2" data-name="Layer 2" xmlns="http://www.w3.org/2000/svg" viewBox="0 0 500 500"><defs><style>.cls-1{fill:#fff;}</style></defs><g id="Layer_3" data-name="Layer 3"><circle class="cls-1" cx="248.57" cy="248.57" r="183.57"/></g><path d="M205.51,394.92s-6.85-46.37,14.23-59c0,0-128.65-12.69-63.08-135.48,0,0-8.55-17.82,1.42-45.36,0,0,17.57-6.18,48,18,0,0,37-14.25,89.28.48,0,0,27.07-19.93,47.49-19.23,0,0,10.45,16.38,2.85,46.29,0,0,68.38,109.7-64.11,135.34,0,0,18.3,8.51,13.18,58.94C294.73,394.92,251,411.86,205.51,394.92Z"/></svg>
