<?xml version="1.0" standalone="no"?>
<!DOCTYPE svg PUBLIC "-//W3C//DTD SVG 20010904//EN"
 "http://www.w3.org/TR/2001/REC-SVG-20010904/DTD/svg10.dtd">
<svg version="1.0" xmlns="http://www.w3.org/2000/svg"
 width="512.000000pt" height="512.000000pt" viewBox="0 0 512.000000 512.000000"
 preserveAspectRatio="xMidYMid meet">
<metadata>
Created by potrace 1.11, written by Peter Selinger 2001-2013
</metadata>
<g transform="translate(0.000000,512.000000) scale(0.100000,-0.100000)"
fill="#000000" stroke="none">
<path d="M1565 3714 c-11 -3 -56 -14 -99 -25 -288 -73 -633 -324 -898 -654
-149 -187 -303 -472 -332 -618 -3 -12 -9 -44 -15 -72 -9 -49 -8 -186 3 -253 8
-49 34 -148 58 -222 84 -261 253 -410 548 -484 58 -14 123 -28 145 -31 22 -3
68 -9 102 -13 75 -10 199 -6 269 8 28 6 63 13 78 16 68 12 162 48 301 116 257
124 506 324 713 572 l74 89 296 3 c164 2 315 5 337 8 22 2 87 7 145 11 58 4
121 9 140 10 46 4 113 11 285 31 37 4 82 10 145 19 14 2 45 7 70 10 50 7 221
33 260 40 27 5 61 12 100 20 14 3 43 7 65 11 107 15 275 58 315 81 224 127
311 274 242 409 -25 49 -138 176 -166 187 -21 8 -354 2 -395 -7 -54 -12 -98
-8 -137 12 -23 12 -52 24 -65 26 -136 31 -207 45 -242 50 -23 3 -53 8 -67 11
-14 3 -43 7 -65 10 -115 14 -145 25 -159 58 -45 100 -185 187 -255 157 -55
-22 -117 -125 -176 -290 -20 -58 -42 -117 -47 -131 -9 -24 -14 -27 -91 -32
-69 -6 -170 -28 -286 -63 -15 -4 -22 -3 -18 3 10 16 -32 201 -65 287 -130 337
-398 551 -783 627 -55 11 -298 20 -330 13z"/>
</g>
</svg>
